<svg width="56" height="128" viewBox="0 0 56 128" fill="none" xmlns="http://www.w3.org/2000/svg">
<rect x="0.5" y="0.5" width="55" height="127" rx="4.5" stroke="#9747FF" stroke-dasharray="10 5"/>
<rect x="20" y="20" width="16" height="16" rx="4" fill="#6E2920"/>
<path d="M28.2737 31.8731C28.2756 32.3203 28.2983 32.8942 28.2683 33.3305C28.2625 33.5711 27.7077 33.5499 27.7077 33.3028L27.706 31.8706C25.7038 32.8055 23.7353 28.2534 26.0359 28.8504C26.7392 29.0375 27.3396 29.4929 27.7065 30.1176C27.704 29.6438 27.7062 29.17 27.7129 28.6963C26.7639 29.0129 25.9239 28.4263 25.4374 27.6448C25.1678 27.2116 24.939 26.5395 25.0425 26.0313C25.1431 25.5376 25.7317 25.5539 26.1092 25.6751C26.7721 25.8618 27.3695 26.3369 27.7068 26.928L27.7072 26.58L27.7077 26.2319C26.3744 25.476 26.7532 23.0857 27.8874 22.5007C28.8807 22.4508 29.8995 25.2473 28.2701 26.2363L28.2739 26.9208C28.58 26.4614 28.9382 26.0762 29.4443 25.8415C30.2714 25.4579 31.1363 25.389 30.9581 26.5903C30.7838 27.7654 29.5587 29.1831 28.2714 28.6853C28.2772 29.1616 28.277 29.6379 28.2709 30.1142C28.5914 29.6308 28.9636 29.2495 29.4931 29.0133C30.9101 28.3857 31.2999 29.1683 30.7795 30.4254C30.3962 31.3514 29.3376 32.3274 28.2737 31.8731Z" fill="white"/>
<path d="M28.2737 67.8731C28.2756 68.3203 28.2983 68.8942 28.2683 69.3305C28.2625 69.5711 27.7077 69.5499 27.7077 69.3028L27.706 67.8706C25.7038 68.8055 23.7353 64.2534 26.0359 64.8504C26.7392 65.0375 27.3396 65.4929 27.7065 66.1176C27.704 65.6438 27.7062 65.17 27.7129 64.6963C26.7639 65.0129 25.9239 64.4263 25.4374 63.6448C25.1678 63.2116 24.939 62.5395 25.0425 62.0313C25.1431 61.5376 25.7317 61.5539 26.1092 61.6751C26.7721 61.8618 27.3695 62.3369 27.7068 62.928L27.7072 62.58L27.7077 62.2319C26.3744 61.476 26.7532 59.0857 27.8874 58.5007C28.8807 58.4508 29.8995 61.2473 28.2701 62.2363L28.2739 62.9208C28.58 62.4614 28.9382 62.0762 29.4443 61.8415C30.2714 61.4579 31.1363 61.389 30.9581 62.5903C30.7838 63.7654 29.5587 65.1831 28.2714 64.6853C28.2772 65.1616 28.277 65.6379 28.2709 66.1142C28.5914 65.6308 28.9636 65.2495 29.4931 65.0133C30.9101 64.3857 31.2999 65.1683 30.7795 66.4254C30.3962 67.3514 29.3376 68.3274 28.2737 67.8731Z" fill="#C33E00"/>
<path d="M28.2737 103.873C28.2756 104.32 28.2983 104.894 28.2683 105.331C28.2625 105.571 27.7077 105.55 27.7077 105.303L27.706 103.871C25.7038 104.805 23.7353 100.253 26.0359 100.85C26.7392 101.037 27.3396 101.493 27.7065 102.118C27.704 101.644 27.7062 101.17 27.7129 100.696C26.7639 101.013 25.9239 100.426 25.4374 99.6448C25.1678 99.2116 24.939 98.5395 25.0425 98.0313C25.1431 97.5376 25.7317 97.5539 26.1092 97.6751C26.7721 97.8618 27.3695 98.3369 27.7068 98.928L27.7072 98.58L27.7077 98.2319C26.3744 97.476 26.7532 95.0857 27.8874 94.5007C28.8807 94.4508 29.8995 97.2473 28.2701 98.2363L28.2739 98.9208C28.58 98.4614 28.9382 98.0762 29.4443 97.8415C30.2714 97.4579 31.1363 97.389 30.9581 98.5903C30.7838 99.7654 29.5587 101.183 28.2714 100.685C28.2772 101.162 28.277 101.638 28.2709 102.114C28.5914 101.631 28.9636 101.249 29.4931 101.013C30.9101 100.386 31.2999 101.168 30.7795 102.425C30.3962 103.351 29.3376 104.327 28.2737 103.873Z" fill="#D78D00"/>
</svg>
