<svg width="56" height="128" viewBox="0 0 56 128" fill="none" xmlns="http://www.w3.org/2000/svg">
<rect x="0.5" y="0.5" width="55" height="127" rx="4.5" stroke="#9747FF" stroke-dasharray="10 5"/>
<rect x="20" y="20" width="16" height="16" rx="4" fill="#6E2920"/>
<path d="M30.4 23.0226C30.8043 22.949 31.3244 23.0729 31.7244 23.141C31.8522 23.1526 32.0045 23.1466 32.1308 23.1478C32.6271 23.1522 32.9579 23.5956 32.892 24.1208C32.8703 24.2943 32.9265 24.5331 32.9549 24.7093C33.2675 26.6463 31.913 28.5118 30.1982 28.947C29.8314 29.04 29.4765 29.1715 29.2126 29.4767C28.9506 29.7753 28.8811 30.1602 28.7356 30.5284C28.5015 31.1086 28.1562 31.6282 27.7226 32.0528C27.0271 32.7371 26.1835 33.0439 25.2525 32.995C24.763 32.9855 24.4486 32.7957 24.03 32.597C23.9239 32.6439 23.8188 32.7356 23.7018 32.7807C23.5934 32.8216 23.4743 32.8142 23.3709 32.7602C23.2648 32.705 23.1825 32.6083 23.1459 32.4864C23.0714 32.2376 23.2349 32.0545 23.3357 31.846C23.3054 31.7434 23.2392 31.5896 23.2005 31.4829C23.105 31.2267 23.0435 30.9571 23.0179 30.6823C22.853 28.891 23.8436 27.3111 25.4035 26.7129C25.9321 26.5103 26.4444 26.5713 26.8673 26.2253C27.2198 25.9369 27.2846 25.5907 27.4778 25.1983C27.606 24.9383 27.7574 24.6925 27.93 24.4646C28.5596 23.6322 29.4098 23.1293 30.4 23.0226Z" fill="white"/>
<path d="M30.4 59.0226C30.8043 58.949 31.3244 59.0729 31.7244 59.141C31.8522 59.1526 32.0045 59.1466 32.1308 59.1478C32.6271 59.1522 32.9579 59.5956 32.892 60.1208C32.8703 60.2943 32.9265 60.5331 32.9549 60.7093C33.2675 62.6463 31.913 64.5118 30.1982 64.947C29.8314 65.04 29.4765 65.1715 29.2126 65.4767C28.9506 65.7753 28.8811 66.1602 28.7356 66.5284C28.5015 67.1086 28.1562 67.6282 27.7226 68.0528C27.0271 68.7371 26.1835 69.0439 25.2525 68.995C24.763 68.9855 24.4486 68.7957 24.03 68.597C23.9239 68.6439 23.8188 68.7356 23.7018 68.7807C23.5934 68.8216 23.4743 68.8142 23.3709 68.7602C23.2648 68.705 23.1825 68.6083 23.1459 68.4864C23.0714 68.2376 23.2349 68.0545 23.3357 67.846C23.3054 67.7434 23.2392 67.5896 23.2005 67.4829C23.105 67.2267 23.0435 66.9571 23.0179 66.6823C22.853 64.891 23.8436 63.3111 25.4035 62.7129C25.9321 62.5103 26.4444 62.5713 26.8673 62.2253C27.2198 61.9369 27.2846 61.5907 27.4778 61.1983C27.606 60.9383 27.7574 60.6925 27.93 60.4646C28.5596 59.6322 29.4098 59.1293 30.4 59.0226Z" fill="#C33E00"/>
<path d="M30.4 95.0226C30.8043 94.949 31.3244 95.0729 31.7244 95.141C31.8522 95.1526 32.0045 95.1466 32.1308 95.1478C32.6271 95.1522 32.9579 95.5956 32.892 96.1208C32.8703 96.2943 32.9265 96.5331 32.9549 96.7093C33.2675 98.6463 31.913 100.512 30.1982 100.947C29.8314 101.04 29.4765 101.171 29.2126 101.477C28.9506 101.775 28.8811 102.16 28.7356 102.528C28.5015 103.109 28.1562 103.628 27.7226 104.053C27.0271 104.737 26.1835 105.044 25.2525 104.995C24.763 104.986 24.4486 104.796 24.03 104.597C23.9239 104.644 23.8188 104.736 23.7018 104.781C23.5934 104.822 23.4743 104.814 23.3709 104.76C23.2648 104.705 23.1825 104.608 23.1459 104.486C23.0714 104.238 23.2349 104.054 23.3357 103.846C23.3054 103.743 23.2392 103.59 23.2005 103.483C23.105 103.227 23.0435 102.957 23.0179 102.682C22.853 100.891 23.8436 99.3111 25.4035 98.7129C25.9321 98.5103 26.4444 98.5713 26.8673 98.2253C27.2198 97.9369 27.2846 97.5907 27.4778 97.1983C27.606 96.9383 27.7574 96.6925 27.93 96.4646C28.5596 95.6322 29.4098 95.1293 30.4 95.0226Z" fill="#D78D00"/>
</svg>
